<svg id="Layer_1" data-name="Layer 1" xmlns="http://www.w3.org/2000/svg" viewBox="0 0 400 300" width="235.8" height="176.85" class="illustration styles_illustrationTablet__1DWOa"><rect x="137.45" y="79.4" width="139.39" height="87.59" fill="#e6e6e6"></rect><rect x="137.45" y="166.99" width="139.39" height="86" fill="#e6e6e6"></rect><rect x="152.67" y="177.18" width="110.27" height="44.49" fill="#c9c9c9"></rect><rect x="185.16" y="226.72" width="43.82" height="18.94" fill="#c9c9c9"></rect><rect x="146.54" y="87.54" width="121.06" height="69.02" fill="#24285b"></rect><rect x="172.44" y="124.41" width="24.47" height="2.47" fill="#fcd468"></rect><rect x="179.46" y="117.53" width="21.88" height="2.47" fill="#ffd200"></rect><rect x="179.46" y="130.39" width="29.16" height="2.47" fill="#fcd468"></rect><rect x="163.36" y="130.39" width="10.97" height="2.47" fill="#fff"></rect><rect x="156.34" y="124.41" width="10.97" height="2.47" fill="#fff"></rect><circle cx="152.81" cy="94.17" r="1.85" fill="#fff"></circle><circle cx="158.32" cy="94.17" r="1.85" fill="#fcd468"></circle><circle cx="163.5" cy="94.17" r="1.85" fill="#ffd200"></circle><rect x="156.34" y="105.62" width="10.97" height="2.47" fill="#fff"></rect><rect x="163.36" y="111.8" width="10.97" height="2.47" fill="#fff"></rect><rect x="179.46" y="111.8" width="21.88" height="2.47" fill="#ffd200"></rect><rect x="163.36" y="117.53" width="10.97" height="2.47" fill="#fff"></rect><rect x="179.46" y="142.26" width="21.88" height="2.47" fill="#ffd200"></rect><rect x="163.36" y="136.53" width="10.97" height="2.47" fill="#fff"></rect><rect x="179.46" y="136.53" width="21.88" height="2.47" fill="#ffd200"></rect><rect x="163.36" y="142.26" width="10.97" height="2.47" fill="#fff"></rect><rect x="171.7" y="105.62" width="22.59" height="2.47" fill="#fcd468"></rect><rect x="199.01" y="105.62" width="16.04" height="2.47" fill="#fcd468"></rect><rect x="224.25" y="87.54" width="43.36" height="69.02" fill="#f2f2f2"></rect><rect x="229.35" y="92.31" width="27.91" height="3.7" fill="#a5a5a5" opacity="0.2"></rect><rect x="234.8" y="104.41" width="27.91" height="3.7" fill="#a5a5a5" opacity="0.2"></rect><rect x="250.06" y="111.34" width="12.66" height="3.7" fill="#a5a5a5" opacity="0.2"></rect><rect x="234.68" y="111.34" width="10.44" height="3.7" fill="#a5a5a5" opacity="0.2"></rect><rect x="242.57" y="118.26" width="20.15" height="3.7" fill="#a5a5a5" opacity="0.2"></rect><rect x="234.99" y="118.26" width="4.91" height="3.7" fill="#a5a5a5" opacity="0.2"></rect><rect x="234.8" y="125.19" width="27.91" height="3.7" fill="#a5a5a5" opacity="0.2"></rect><rect x="234.8" y="132.11" width="27.91" height="3.7" fill="#a5a5a5" opacity="0.2"></rect><path d="M137.45,161.86v12.93s9.31-2.55,12.27,9.88,36.42,56.91,84.42,14.75c0,0,6.77-14.07,42.7-9.9V172.41l-32.14,1.53-17.2,2.9L221,186.2l-17.88,9.19-21.95-6.64-13.9-20.89-13.68-11.62Z" opacity="0.08"></path><rect x="234.8" y="139.03" width="27.91" height="3.7" fill="#a5a5a5" opacity="0.2"></rect><path d="M154.66,148s-20.6-7.86-28.77,0-4.09,15.64,7.66,14.3,19.41-2.62,24.77,8.61,10,40.6,44.16,32.17,22-27.57,52.34-24,33.71-6.89,34-20.42-11.94-20.07-11.94-20.07l-.31,18s-3,11-19.26,6.89-30.45.56-40.49,13c-4.71,5.85-16.76,13.67-26.38,10S178.07,152.4,154.66,148Z" fill="#fcd468"></path><path d="M185.16,79.4s-11-27.07,17.83-29.88,49.79,21.63,27.83,44.65c0,0,7.92-26.53-14-30.1S205.2,79.4,205.2,79.4Z" fill="#fcd468"></path><circle cx="137.31" cy="151.84" r="1.98" fill="#24285b"></circle><path d="M122,158,108.27,164l3.7.64-.89,3.19,13.7-6.78S122.27,159.18,122,158Z" fill="#fcd468"></path><path d="M122,158,108.27,164l3.7.64-.89,3.19,13.7-6.78S122.27,159.18,122,158Z" opacity="0.08"></path><rect x="74.99" y="51.03" width="100.88" height="45.45" fill="#e6e6e6"></rect><circle cx="84.14" cy="58.16" r="2.73" fill="#24285b"></circle><rect x="137.45" y="79.4" width="44.09" height="26.21" opacity="0.08"></rect><circle cx="92.26" cy="58.16" r="2.73" fill="#fcd468"></circle><rect x="74.99" y="65.23" width="100.88" height="34.19" fill="#f2f2f2"></rect><circle cx="99.91" cy="58.16" r="2.73" fill="#ffd200"></circle><polygon points="183.81 74.77 203.36 74.77 205.2 79.4 185.16 79.4 183.81 74.77" opacity="0.08"></polygon><path d="M94.07,78.26l-5,1.81,5,1.81v1.86L87,81V79.11l7.09-2.7Z" fill="#a5a5a5"></path><path d="M105.25,78.64c0,2.33-1.74,3.77-4.53,3.77h-2.1v2.88H96.21V74.86h4.51C103.51,74.86,105.25,76.31,105.25,78.64Zm-2.44,0c0-1.14-.75-1.81-2.22-1.81h-2v3.62h2C102.06,80.45,102.81,79.78,102.81,78.64Z" fill="#a5a5a5"></path><path d="M114.84,77.27l-3.62,8.51c-.78,1.93-1.88,2.51-3.32,2.51a3.52,3.52,0,0,1-2.24-.73l.85-1.65a2.09,2.09,0,0,0,1.31.51c.64,0,1-.29,1.31-1l0-.07-3.47-8.08h2.4l2.25,5.44,2.26-5.44Z" fill="#a5a5a5"></path><path d="M121.18,84.9a3.36,3.36,0,0,1-1.9.5c-1.89,0-3-1-3-2.87V79.24h-1.23V77.45h1.23v-2h2.32v2h2v1.79h-2V82.5a.94.94,0,0,0,1,1.06,1.57,1.57,0,0,0,.94-.3Z" fill="#a5a5a5"></path><path d="M130.67,80.7v4.59h-2.32V81.06c0-1.3-.59-1.9-1.62-1.9s-1.92.69-1.92,2.16v4h-2.33V74.24h2.33v3.87a3.49,3.49,0,0,1,2.54-1C129.25,77.15,130.67,78.26,130.67,80.7Z" fill="#a5a5a5"></path><path d="M132.26,81.28a4.41,4.41,0,1,1,4.41,4.12A4.14,4.14,0,0,1,132.26,81.28Zm6.45,0a2.05,2.05,0,1,0-2,2.22A2,2,0,0,0,138.71,81.28Z" fill="#a5a5a5"></path><path d="M150.8,80.7v4.59h-2.32V81.06c0-1.3-.6-1.9-1.63-1.9s-1.92.69-1.92,2.16v4h-2.32v-8h2.22v.94a3.51,3.51,0,0,1,2.65-1.06C149.37,77.15,150.8,78.26,150.8,80.7Z" fill="#a5a5a5"></path><path d="M159.84,79.11V81l-7.09,2.7V81.88l5-1.81-5-1.81V76.41Z" fill="#a5a5a5"></path></svg>